<svg width="1440" height="600" viewBox="0 0 1440 600" fill="none" xmlns="http://www.w3.org/2000/svg">
<rect width="1440" height="600" fill="#2362EB"/>
<rect x="613" y="32" width="119" height="119" fill="#2D69EC"/>
<rect x="752" y="32" width="119" height="119" fill="#2D69EC"/>
<rect x="891" y="32" width="119" height="119" fill="#2D69EC"/>
<rect x="474" y="171" width="119" height="119" fill="#2D69EC"/>
<rect x="613" y="171" width="119" height="119" fill="#2D69EC"/>
<rect x="752" y="171" width="119" height="119" fill="#2D69EC"/>
<rect x="891" y="171" width="119" height="119" fill="#2D69EC"/>
<rect x="1030" y="171" width="119" height="119" fill="#2D69EC"/>
<rect x="1169" y="171" width="119" height="119" fill="#2D69EC"/>
<rect x="196" y="310" width="119" height="119" fill="#2D69EC"/>
<rect x="335" y="310" width="119" height="119" fill="#2D69EC"/>
<rect x="474" y="310" width="119" height="119" fill="#2D69EC"/>
<rect x="613" y="310" width="119" height="119" fill="#2D69EC"/>
<rect x="752" y="310" width="119" height="119" fill="#2D69EC"/>
<rect x="891" y="310" width="119" height="119" fill="#2D69EC"/>
<rect x="335" y="449" width="119" height="119" fill="#2D69EC"/>
<rect x="474" y="449" width="119" height="119" fill="#2D69EC"/>
<rect x="613" y="449" width="119" height="119" fill="#2D69EC"/>
</svg>
