<svg width="32" height="32" viewBox="0 0 32 32" fill="none" xmlns="http://www.w3.org/2000/svg">
<g clip-path="url(#clip0_21_2)">
<rect y="18" width="14" height="14" fill="#5674EB"/>
<rect x="18" y="18" width="14" height="14" fill="#5674EB"/>
<rect width="14" height="14" fill="#5674EB"/>
<path d="M22.344 9.972L22.344 -9.31577e-07L24.882 -7.09698e-07L24.882 1.26C25.206 0.827999 25.632 0.485999 26.16 0.233999C26.676 -0.00600055 27.24 -0.126001 27.852 -0.126C28.632 -0.126 29.322 0.0359997 29.922 0.36C30.522 0.696 30.996 1.182 31.344 1.818C31.68 2.466 31.848 3.234 31.848 4.122L31.848 9.972L29.328 9.972L29.328 4.482C29.328 3.69 29.13 3.078 28.734 2.646C28.338 2.226 27.798 2.016 27.114 2.016C26.418 2.016 25.872 2.226 25.476 2.646C25.08 3.078 24.882 3.69 24.882 4.482L24.882 9.972L22.344 9.972ZM18.9396 11.16C19.3836 11.16 19.7556 11.298 20.0556 11.574C20.3436 11.862 20.4876 12.216 20.4876 12.636C20.4876 13.056 20.3436 13.404 20.0556 13.68C19.7556 13.968 19.3836 14.112 18.9396 14.112C18.4956 14.112 18.1296 13.968 17.8416 13.68C17.5416 13.404 17.3916 13.056 17.3916 12.636C17.3916 12.216 17.5416 11.862 17.8416 11.574C18.1296 11.298 18.4956 11.16 18.9396 11.16ZM17.6976 9.972L17.6976 -1.33778e-06L20.2176 -1.11747e-06L20.2176 9.972L17.6976 9.972Z" fill="#5674EB"/>
</g>
<defs>
<clipPath id="clip0_21_2">
<rect width="32" height="32" fill="white"/>
</clipPath>
</defs>
</svg>
